<?xml version="1.0" encoding="UTF-8"?>
<svg width="92px" height="104px" viewBox="0 0 92 104" version="1.1" xmlns="http://www.w3.org/2000/svg" xmlns:xlink="http://www.w3.org/1999/xlink">
    <title>Untitled design-4</title>
    <defs>
        <polygon id="path-1" points="0 0 35 0 35 82 0 82"></polygon>
        <polygon id="path-3" points="0 0 82 0 82 36 0 36"></polygon>
        <polygon id="path-5" points="0 0 82 0 82 36 0 36"></polygon>
    </defs>
    <g id="Hi-FI-2" stroke="none" stroke-width="1" fill="none" fill-rule="evenodd">
        <g id="Logo-Page" transform="translate(-149.000000, -341.000000)">
            <g id="Untitled-design-4" transform="translate(149.000000, 341.000000)">
                <g id="Clipped" transform="translate(0.000000, 11.000000)">
                    <mask id="mask-2" fill="white">
                        <use xlink:href="#path-1"></use>
                    </mask>
                    <g id="Path"></g>
                    <path d="M31.2534976,61.5574925 C25.7765869,56.3585748 22.5524725,49.2049284 22.5524725,41.0739177 C22.5524725,32.9511218 25.7765869,25.8056902 30.9270051,20.5985577 C35.440766,16.0484765 35.440766,8.90304487 30.9270051,4.34475108 C26.4214081,-0.205328 19.3283582,-0.205328 14.8227612,4.34475108 C5.80340537,13.773437 0,26.7748397 0,41.0739177 C0,55.3812105 5.80340537,68.3826132 15.1410919,77.811297 C19.6548507,82.3613782 26.7397388,82.3613782 31.2534976,77.811297 C35.440766,73.2612179 35.440766,66.1075716 31.2534976,61.5574925 Z" id="Path" fill="#575F95" fill-rule="nonzero" mask="url(#mask-2)"></path>
                </g>
                <g id="Clipped" transform="translate(10.000000, 0.000000)">
                    <mask id="mask-4" fill="white">
                        <use xlink:href="#path-3"></use>
                    </mask>
                    <g id="Path"></g>
                    <path d="M21.460937,31.3927843 C26.6434295,25.8951674 33.7806485,22.6684822 41.8788066,22.6684822 C49.9851773,22.6684822 57.1223964,25.8951674 62.3048868,31.0741997 C66.8467553,35.5997282 73.9757617,35.5997282 78.5094156,31.0741997 C83.0512821,26.5486732 83.0512821,19.4336286 78.5094156,14.9081 C69.1135823,5.85704709 56.1450321,0.0326752888 41.8788066,0.0326752888 C27.6207938,0.0326752888 14.6522436,5.85704709 5.25641026,15.2266846 C0.714543795,19.7603814 0.714543795,26.8672557 5.24819764,31.3927843 C9.7900641,35.5997282 16.9190705,35.5997282 21.460937,31.3927843 Z" id="Path" fill="#2D377A" fill-rule="nonzero" mask="url(#mask-4)"></path>
                </g>
                <g id="Clipped" transform="translate(10.000000, 68.000000)">
                    <mask id="mask-6" fill="white">
                        <use xlink:href="#path-5"></use>
                    </mask>
                    <g id="Path"></g>
                    <path d="M62.3048868,4.74305144 C57.1223964,10.2183052 49.9851773,13.4400002 41.8788066,13.4400002 C33.7806485,13.4400002 26.6434295,10.2183052 21.460937,5.06847517 C16.9190705,0.553220347 9.7900641,0.553220347 5.24819764,5.06847517 C0.714543795,9.57559284 0.714543795,16.6535601 5.24819764,21.1606778 C14.6522436,30.1830523 27.6207938,35.9755948 41.8788066,35.9755948 C56.1450321,35.9755948 69.1135823,30.1830523 78.5094156,20.8433891 C83.0512821,16.3362714 83.0512821,9.2501691 78.5094156,4.74305144 C73.9757617,0.553220347 66.8385406,0.553220347 62.3048868,4.74305144 Z" id="Path" fill="#6C73A2" fill-rule="nonzero" mask="url(#mask-6)"></path>
                </g>
                <path d="M35,23.5 C35,24.2555941 34.925082,25.0028876 34.7752438,25.7418763 C34.6254077,26.4808671 34.4089752,27.2032482 34.1176269,27.9007212 C33.8346001,28.5981941 33.4766553,29.2624541 33.0604421,29.8851983 C32.6359031,30.5162453 32.1614193,31.0974717 31.6286651,31.6288796 C31.0959109,32.1685925 30.5132098,32.6418771 29.8888879,33.0653434 C29.2562444,33.4805048 28.5986254,33.8375451 27.8993854,34.1281593 C27.2001455,34.4104688 26.4842559,34.634657 25.7433951,34.7758117 C25.0025342,34.9252713 24.2533475,35 23.4958371,35 C22.7383287,35 21.9974679,34.9252713 21.2566049,34.7758117 C20.5157441,34.634657 19.7915308,34.4104688 19.0922908,34.1281593 C18.4013768,33.8375451 17.735434,33.4805048 17.1111121,33.0653434 C16.4784664,32.6418771 15.8957654,32.1685925 15.3630111,31.6288796 C14.8302569,31.0974717 14.3557732,30.5162453 13.9312341,29.8851983 C13.5150209,29.2624541 13.1653999,28.5981941 12.8740515,27.9007212 C12.582701,27.2032482 12.3662685,26.4808671 12.2164325,25.7418763 C12.0749202,25.0028876 12,24.2555941 12,23.5 C12,22.7444038 12.0749202,21.9971102 12.2164325,21.2581216 C12.3662685,20.5108302 12.582701,19.7967497 12.8740515,19.0992767 C13.1653999,18.4018038 13.5150209,17.7375438 13.9312341,17.1064968 C14.3557732,16.4837526 14.8302569,15.9025262 15.3630111,15.3628155 C15.8957654,14.8314075 16.4784664,14.3581207 17.1111121,13.9346566 C17.735434,13.5194931 18.4013768,13.1624528 19.0922908,12.8718407 C19.7915308,12.5812264 20.5157441,12.3653409 21.2566049,12.2158834 C21.9974679,12.0747287 22.7383287,12 23.4958371,12 C24.2533475,12 25.0025342,12.0747287 25.7433951,12.2158834 C26.4842559,12.3653409 27.2001455,12.5812264 27.8993854,12.8718407 C28.5986254,13.1624528 29.2562444,13.5194931 29.8888879,13.9346566 C30.5132098,14.3581207 31.0959109,14.8314075 31.6286651,15.3628155 C32.1614193,15.9025262 32.6359031,16.4837526 33.0604421,17.1064968 C33.4766553,17.7375438 33.8346001,18.4018038 34.1176269,19.0992767 C34.4089752,19.7967497 34.6254077,20.5108302 34.7752438,21.2581216 C34.925082,21.9971102 35,22.7444038 35,23.5 Z" id="Path" fill="#C0C3D7" fill-rule="nonzero"></path>
                <path d="M35,80.5 C35,81.2555951 34.925082,82.0028864 34.7752438,82.7418772 C34.6254077,83.4808658 34.4089752,84.2032489 34.1176269,84.9007218 C33.8346001,85.5981947 33.4766553,86.2624546 33.0604421,86.8851988 C32.6359031,87.5162436 32.1614193,88.097472 31.6286651,88.62888 C31.0959109,89.1685906 30.5132098,89.6418752 29.8888879,90.0570387 C29.2562444,90.480505 28.5986254,90.8375431 27.8993854,91.1198546 C27.2001455,91.4104688 26.4842559,91.6346549 25.7433951,91.7758118 C25.0025342,91.9252692 24.2533475,92 23.4958371,92 C22.7383287,92 21.9974679,91.9252692 21.2566049,91.7758118 C20.5157441,91.6346549 19.7915308,91.4104688 19.0922908,91.1198546 C18.4013768,90.8375431 17.735434,90.480505 17.1111121,90.0570387 C16.4784664,89.6418752 15.8957654,89.1685906 15.3630111,88.62888 C14.8302569,88.097472 14.3557732,87.5162436 13.9312341,86.8851988 C13.5150209,86.2624546 13.1653999,85.5981947 12.8740515,84.9007218 C12.582701,84.2032489 12.3662685,83.4808658 12.2164325,82.7418772 C12.0749202,82.0028864 12,81.2555951 12,80.5 C12,79.7444028 12.0749202,78.9971115 12.2164325,78.2498201 C12.3662685,77.5108294 12.582701,76.7967511 12.8740515,76.0992782 C13.1653999,75.4018053 13.5150209,74.7375454 13.9312341,74.1064985 C14.3557732,73.4837543 14.8302569,72.9025258 15.3630111,72.3628152 C15.8957654,71.8314073 16.4784664,71.3498199 17.1111121,70.9346564 C17.735434,70.5111902 18.4013768,70.1624548 19.0922908,69.8718406 C19.7915308,69.5812263 20.5157441,69.3653429 21.2566049,69.2158855 C21.9974679,69.066426 22.7383287,69 23.4958371,69 C24.2533475,69 25.0025342,69.066426 25.7433951,69.2158855 C26.4842559,69.3653429 27.2001455,69.5812263 27.8993854,69.8718406 C28.5986254,70.1624548 29.2562444,70.5111902 29.8888879,70.9346564 C30.5132098,71.3498199 31.0959109,71.8314073 31.6286651,72.3628152 C32.1614193,72.9025258 32.6359031,73.4837543 33.0604421,74.1064985 C33.4766553,74.7375454 33.8346001,75.4018053 34.1176269,76.0992782 C34.4089752,76.7967511 34.6254077,77.5108294 34.7752438,78.2498201 C34.925082,78.9971115 35,79.7444028 35,80.5 Z" id="Path" fill="#242C62" fill-rule="nonzero"></path>
            </g>
        </g>
    </g>
</svg>